<?xml version="1.0" encoding="UTF-8" standalone="no"?>
<!-- Created with Inkscape (http://www.inkscape.org/) -->

<svg
   width="210mm"
   height="297mm"
   viewBox="0 0 210 297"
   version="1.1"
   id="svg5"
   xml:space="preserve"
   inkscape:version="1.2.2 (b0a8486, 2022-12-01)"
   sodipodi:docname="vx-logo.svg"
   inkscape:export-filename="vx-logo.png"
   inkscape:export-xdpi="96"
   inkscape:export-ydpi="96"
   xmlns:inkscape="http://www.inkscape.org/namespaces/inkscape"
   xmlns:sodipodi="http://sodipodi.sourceforge.net/DTD/sodipodi-0.dtd"
   xmlns="http://www.w3.org/2000/svg"
   xmlns:svg="http://www.w3.org/2000/svg"><sodipodi:namedview
     id="namedview7"
     pagecolor="#ffffff"
     bordercolor="#666666"
     borderopacity="1.0"
     inkscape:showpageshadow="2"
     inkscape:pageopacity="0.0"
     inkscape:pagecheckerboard="0"
     inkscape:deskcolor="#d1d1d1"
     inkscape:document-units="mm"
     showgrid="false"
     inkscape:zoom="0.84096521"
     inkscape:cx="388.83892"
     inkscape:cy="386.4607"
     inkscape:window-width="1683"
     inkscape:window-height="1030"
     inkscape:window-x="211"
     inkscape:window-y="646"
     inkscape:window-maximized="0"
     inkscape:current-layer="layer1" /><defs
     id="defs2" /><g
     inkscape:label="Layer 1"
     inkscape:groupmode="layer"
     id="layer1"><rect
       style="fill:#ffffff;stroke:#000000;stroke-width:1.119;stroke-linecap:round;stroke-linejoin:bevel;stroke-dasharray:none;stroke-opacity:1"
       id="rect788"
       width="77.396187"
       height="89.351692"
       x="65.804977"
       y="16.293552"
       ry="0.1"
       inkscape:export-filename="vx-logo.png"
       inkscape:export-xdpi="96"
       inkscape:export-ydpi="96" /><text
       xml:space="preserve"
       style="font-style:normal;font-weight:normal;font-size:50.8px;line-height:1.25;font-family:sans-serif;fill:#000000;fill-opacity:1;stroke:none;stroke-width:0.264583"
       x="78.387802"
       y="62.894962"
       id="text1054"><tspan
         sodipodi:role="line"
         id="tspan1052"
         style="font-size:50.8px;stroke-width:0.264583"
         x="78.387802"
         y="62.894962">V</tspan></text><text
       xml:space="preserve"
       style="font-style:normal;font-variant:normal;font-weight:normal;font-stretch:normal;font-size:35.2778px;line-height:1.25;font-family:sans-serif;-inkscape-font-specification:sans-serif;fill:#000000;fill-opacity:1;stroke:none;stroke-width:0.264583"
       x="107.0321"
       y="63.271477"
       id="text1054-9"><tspan
         sodipodi:role="line"
         id="tspan1052-3"
         style="font-style:normal;font-variant:normal;font-weight:normal;font-stretch:normal;font-size:35.2778px;font-family:sans-serif;-inkscape-font-specification:sans-serif;stroke-width:0.264583"
         x="107.0321"
         y="63.271477">x</tspan></text><path
       style="fill:#000000;stroke-width:0.268351"
       d="m 65.812701,105.19494 c -0.846239,-0.9085 0.328223,-2.0004 2.173452,-2.02067 1.99986,-0.0219 3.644755,-0.48128 4.402859,-1.22944 0.356112,-0.35146 2.087578,-1.68271 3.84771,-2.958346 4.561243,-3.30573 4.774685,-3.90102 1.949055,-5.43583 -0.811434,-0.44077 -1.528872,-1.02122 -1.59432,-1.2899 -0.1697,-0.69666 -0.350937,-0.61787 -1.196967,0.52048 -0.676484,0.91022 -0.706769,1.0349 -0.309373,1.27366 0.297703,0.17886 0.359942,0.37006 0.191981,0.58977 -0.136701,0.17883 -0.288848,0.63725 -0.338109,1.01875 -0.06039,0.46769 -0.384818,0.84826 -0.996031,1.16835 -1.302616,0.68221 -1.746011,0.61443 -2.607822,-0.39855 -0.937808,-1.10233 -1.707058,-0.82877 -1.602525,0.5699 0.06738,0.90146 -0.837195,1.73068 -2.285649,2.09526 -0.486472,0.12244 -0.662907,0.34054 -0.647478,0.80035 0.01519,0.452496 -0.144325,0.657276 -0.561522,0.720886 -0.565302,0.0862 -0.582731,0.0178 -0.582731,-2.286766 0,-2.75773 -0.227555,-2.51236 3.896903,-4.20213 3.73202,-1.52899 4.082657,-1.79015 2.155331,-1.60535 -0.873408,0.0838 -2.592461,0.0625 -3.820123,-0.0473 l -2.232111,-0.19962 v -6.13668 -6.13669 l 8.352475,0.24216 c 9.594238,0.27812 22.690633,0.20102 24.967095,-0.14703 0.09972,-0.0153 1.274649,-2.1968 1.665189,-3.09182 0.24009,-0.55027 0.62498,-1.0781 0.8553,-1.17298 0.44385,-0.18287 0.58114,-1.19185 0.18348,-1.3485 -0.37384,-0.14729 -0.457,-1.2145 -0.0885,-1.13537 0.17806,0.0382 0.30994,-0.0243 0.29307,-0.13903 -0.0893,-0.60698 0.10563,-0.87731 0.82721,-1.14737 0.62533,-0.23403 0.76207,-0.41467 0.63621,-0.84042 -0.1233,-0.41707 -0.0238,-0.5632 0.43102,-0.63276 0.66479,-0.10162 0.99898,-1.0636 0.36951,-1.0636 -0.21703,0 -0.52123,0.21896 -0.676,0.48658 -0.2572,0.44475 -0.27471,0.43878 -0.20357,-0.0696 0.18689,-1.33521 1.36355,-0.67797 1.38918,0.77594 0.0129,0.73262 0.15859,1.4771 0.32374,1.65439 0.19878,0.21342 0.3016,1.64264 0.30423,4.22894 0.002,2.14862 0.12022,4.09427 0.26233,4.32366 0.18207,0.29391 0.24262,-0.16042 0.20505,-1.53851 -0.0605,-2.21817 0.166,-2.94351 0.68237,-2.18538 0.17985,0.26408 0.60571,0.52467 0.94635,0.5791 0.34064,0.0544 1.11179,0.29962 1.71367,0.54485 1.25345,0.5107 5.57801,0.19932 6.41642,-0.46201 0.36806,-0.29031 4.37194,-0.91892 6.21579,-0.97585 0.85467,-0.0264 2.36978,-0.18528 3.36689,-0.35309 0.99712,-0.1678 3.24199,-0.43803 4.98861,-0.6005 3.03963,-0.28276 5.03129,-0.65597 6.14803,-1.15206 0.2849,-0.12655 1.27553,-0.28877 2.20144,-0.36048 0.92589,-0.0717 2.12018,-0.21533 2.65396,-0.31916 2.35986,-0.45906 2.26688,-0.77249 2.26688,7.64045 0,8.64197 0.46373,7.76592 -4.21025,7.95369 -2.93617,0.11796 -4.40344,0.39934 -4.28495,0.82172 0.1121,0.39975 1.65447,0.38151 3.98554,-0.0471 1.99386,-0.36662 2.38741,-0.34192 3.79743,0.23843 0.68294,0.28108 0.71222,0.37298 0.71222,2.23549 0,1.74466 -0.0462,1.92094 -0.45323,1.73197 -0.24928,-0.11572 -1.8518,-0.70982 -3.56113,-1.32025 -1.70935,-0.6104 -3.72235,-1.40496 -4.47335,-1.76568 -0.75099,-0.36072 -1.58168,-0.65586 -1.84598,-0.65586 -0.26429,0 -0.62196,-0.18296 -0.79482,-0.40657 -0.17287,-0.22362 -0.97241,-0.67093 -1.77677,-0.99401 -0.80435,-0.3231 -1.58043,-0.69136 -1.7246,-0.81837 -0.44484,-0.39188 -3.00284,-1.07494 -5.31247,-1.41858 -2.25572,-0.33562 -3.62588,-0.86788 -3.62588,-1.40854 0,-0.19049 0.16161,-0.16174 0.4306,0.0767 0.36926,0.32724 0.41212,0.32219 0.30087,-0.0355 -0.0713,-0.2294 -0.36284,-0.41708 -0.64774,-0.41708 -0.2849,0 -0.71415,-0.17394 -0.95389,-0.38655 -0.46723,-0.41433 -3.17836,-0.27104 -3.97958,0.21033 -0.28703,0.17246 -0.72221,0.0115 -1.46965,-0.545 -0.75626,-0.56265 -1.65568,-0.89262 -3.1252,-1.14659 -2.06333,-0.35658 -2.06333,-0.35658 -2.28953,-1.38848 -0.25901,-1.18159 -0.83959,-1.50346 -1.83427,-1.0169 -1.09176,0.53404 -1.57683,-1.49814 -1.30291,-5.45852 0.22944,-3.31717 -0.49224,-4.69558 -1.78499,-3.40935 -0.62467,0.62152 -0.69614,0.88769 -0.69614,2.59266 0,4.75287 -0.59038,7.39581 -1.70816,7.64691 -0.41374,0.0929 -1.393265,0.48818 -2.176709,0.87826 -1.986325,0.98904 -2.823413,1.16688 -3.011799,0.63982 -0.238199,-0.66641 -0.803003,-0.49804 -1.288336,0.38404 -0.244507,0.44435 -0.886736,1.07473 -1.427183,1.40084 -0.662025,0.39946 -0.933939,0.72911 -0.833408,1.01038 0.116725,0.32655 -0.04098,0.40451 -0.724146,0.35796 -0.892643,-0.0607 -2.748983,0.46574 -3.191336,0.90525 -0.135324,0.13445 -0.496029,0.24445 -0.801588,0.24445 -0.305542,0 -0.76648,0.25025 -1.024302,0.55611 -0.257822,0.30585 -0.671572,0.5561 -0.919445,0.5561 -0.247865,0 -1.005891,0.56304 -1.684501,1.25122 -0.678611,0.68816 -1.360973,1.26447 -1.516367,1.28067 -0.73625,0.0767 -1.861319,-0.10197 -2.082531,-0.33094 -0.379879,-0.39312 -1.337835,-0.30138 -1.696401,0.16245 -0.472144,0.61077 -0.004,1.07808 1.812945,1.80732 1.700301,0.68267 1.919657,0.88848 2.176865,2.04245 0.211453,0.94869 -0.187756,1.56959 -0.883558,1.37424 -0.366203,-0.10277 -0.638715,0.11081 -1.015133,0.79574 -0.283011,0.51494 -0.898414,1.17187 -1.367586,1.45982 -1.597835,0.980666 -2.281432,1.835816 -1.938626,2.425126 0.381112,0.65516 0.696494,0.67119 0.699136,0.0356 0.0023,-0.5807 1.107343,-1.19864 1.581154,-0.88427 0.387146,0.25688 2.208875,-1.471896 2.568831,-2.437766 0.696763,-1.86961 2.001072,-1.72437 2.465006,0.27451 0.397423,1.712306 5.800001,0.99262 8.604287,-1.14622 1.576035,-1.20204 4.203064,-1.9029 4.203064,-1.12132 0,0.2184 0.557575,0.27257 1.812937,0.17615 0.99711,-0.0766 1.81294,-0.0309 1.81294,0.10162 0,0.44745 0.79186,0.24491 0.96045,-0.24566 0.35734,-1.03978 1.24239,-1.22339 1.00513,-0.20854 -0.18639,0.7973 0.0189,0.869 0.80196,0.28013 0.36306,-0.27301 0.50564,-0.6048 0.41674,-0.96979 -0.0848,-0.34816 0.016,-0.61705 0.27054,-0.72193 0.33256,-0.13702 0.34952,-0.26595 0.0941,-0.71544 -0.25723,-0.45269 -0.23253,-0.6113 0.14167,-0.90958 0.2786,-0.22207 0.45324,-0.72982 0.45324,-1.31771 0,-1.41135 0.42934,-1.72936 1.36701,-1.01255 0.75658,0.57837 0.76608,0.6175 0.64437,2.65354 -0.12992,2.1734 0.14516,2.75049 0.9635,2.02136 0.33125,-0.29515 0.3285,-0.44066 -0.0221,-1.16841 -0.60241,-1.25065 -0.34025,-1.69506 0.71809,-1.21731 1.01426,0.45784 1.17433,0.83513 0.61096,1.43996 -0.38094,0.40896 -0.38294,0.49845 -0.0208,0.92804 0.22042,0.26149 0.40077,0.81113 0.40077,1.22143 0,1.0257 2.28784,0.99612 2.71607,-0.0351 0.27916,-0.67223 0.90743,-0.78538 1.7316,-0.31184 0.71179,0.40897 1.2384,-0.0988 0.82776,-0.79805 -0.34618,-0.58952 -2.70919,-1.02674 -2.98257,-0.55184 -0.11886,0.20647 -0.44568,0.0124 -0.94425,-0.56054 -0.81862,-0.94083 -0.81774,-1.33483 0.002,-0.86387 0.38948,0.22379 0.6207,0.17849 1.00757,-0.19741 0.46117,-0.44804 0.5703,-0.45292 1.33817,-0.0598 1.16946,0.59871 1.90691,0.24299 2.24129,-1.0811 0.5653,-2.23844 2.37577,-4.06025 3.17853,-3.19842 0.40381,0.43353 0.0127,2.20062 -0.5868,2.65146 -0.42701,0.32108 -0.47046,0.51194 -0.25506,1.12019 0.30301,0.85562 0.45437,0.89422 1.08893,0.2777 0.3857,-0.37474 0.53959,-0.39235 0.86838,-0.0994 0.5388,0.48008 0.83211,0.10438 0.44203,-0.56621 -0.3721,-0.63968 -0.42164,-3.22343 -0.0663,-3.4592 0.47842,-0.31743 1.15976,1.3366 1.6902,4.10319 0.11568,0.60336 0.23809,0.72029 0.55483,0.52998 0.22351,-0.13428 0.96079,-0.18697 1.63842,-0.11707 1.10047,0.11357 1.24789,0.0619 1.38077,-0.48357 0.14421,-0.59204 1.73993,0.17016 1.73993,0.83108 0,0.51057 -2.46883,1.26412 -2.71883,0.82986 -0.0884,-0.15348 -0.29945,-0.27457 -0.46911,-0.26905 -0.16965,0.005 0.0411,0.32091 0.46852,0.70093 0.77697,0.69095 0.77697,0.69095 -0.90647,0.52841 -1.20622,-0.11646 -1.84791,-0.32818 -2.26361,-0.74683 -0.49775,-0.50128 -0.67515,-0.53783 -1.24865,-0.2573 -0.83875,0.41028 -0.77197,1.3367 0.087,1.20706 0.31699,-0.0479 0.57634,0.0459 0.57634,0.20853 0,0.39171 0.84781,0.37566 1.68083,-0.0318 0.76583,-0.37461 1.61661,0.23019 1.35469,0.96301 -0.19638,0.54936 -2.80825,0.71004 -5.43118,0.33412 -1.80004,-0.25796 -1.95389,0.0985 -0.475,1.10084 0.5578,0.37806 1.08914,0.81755 1.18074,0.97667 0.0916,0.15912 0.49684,0.28931 0.90054,0.28931 0.4135,0 0.79907,0.182106 0.88305,0.417076 0.0879,0.2458 0.47662,0.41707 0.94669,0.41707 0.43869,0 1.25425,0.23686 1.81236,0.52635 0.85195,0.44191 1.06205,0.46514 1.30964,0.14487 0.21653,-0.28011 0.42624,-0.30603 0.78912,-0.0975 0.32457,0.18648 0.64863,0.19081 0.94403,0.0126 0.33789,-0.20385 0.59563,-0.12467 1.03595,0.31822 0.45227,0.45491 0.65637,0.51421 0.89353,0.25961 0.36073,-0.38727 1.15873,-0.4385 1.2829,-0.0823 0.0477,0.13678 0.63715,0.1565 1.31679,0.0441 1.03503,-0.17124 1.3641,-0.10656 2.07193,0.40762 1.26835,0.92123 2.17069,1.06847 5.37383,0.87681 1.61342,-0.0966 2.3055,-0.0326 2.59111,0.23964 0.21433,0.20425 0.73879,0.4215 1.16546,0.48277 0.84163,0.12087 1.20962,0.93809 0.60702,1.34806 -0.48661,0.33108 -4.03901,0.30695 -4.23226,-0.0287 -0.0941,-0.16339 0.031,-0.20318 0.30845,-0.0981 0.39151,0.1483 0.41173,0.11425 0.1255,-0.21172 -0.2914,-0.33182 -0.38586,-0.32359 -0.64757,0.0564 -0.34858,0.50602 -6.59915,0.61678 -7.5357,0.13352 -0.3465,-0.17879 -0.4424,-0.16316 -0.31859,0.0519 0.22856,0.39703 -10.54843,0.45577 -11.23508,0.0612 -0.33084,-0.19009 -0.50838,-0.16779 -0.59986,0.0754 -0.10294,0.27357 -0.1342,0.27311 -0.15039,-0.002 -0.0115,-0.19579 -0.33144,-0.33546 -0.73268,-0.31984 -0.71222,0.0277 -0.71222,0.0277 -0.0647,0.24949 0.35611,0.12197 -11.1985,0.22728 -25.676932,0.23401 -14.47842,0.007 -26.395269,-0.0639 -26.481877,-0.15679 z"
       id="path1925-9-3" /></g></svg>
